<svg id="bold" enable-background="new 0 0 24 24" height="512" viewBox="0 0 24 24" width="512" xmlns="http://www.w3.org/2000/svg"><path d="m7 8c-1.103 0-2-.897-2-2s.897-2 2-2 2 .897 2 2-.897 2-2 2z"/><path d="m10.25 12h-6.5c-.414 0-.75-.336-.75-.75 0-1.241 1.009-2.25 2.25-2.25h3.5c1.241 0 2.25 1.009 2.25 2.25 0 .414-.336.75-.75.75z"/><circle cx="21" cy="18.5" r="1.5"/><path d="m23.25 24h-4.5c-.414 0-.75-.336-.75-.75 0-1.241 1.009-2.25 2.25-2.25h1.5c1.241 0 2.25 1.009 2.25 2.25 0 .414-.336.75-.75.75z"/><circle cx="13" cy="18.5" r="1.5"/><path d="m15.25 24h-4.5c-.414 0-.75-.336-.75-.75 0-1.241 1.009-2.25 2.25-2.25h1.5c1.241 0 2.25 1.009 2.25 2.25 0 .414-.336.75-.75.75z"/><path d="m22.25 0h-8.5c-.965 0-1.75.785-1.75 1.75v4.5c0 .965.785 1.75 1.75 1.75h1.25v2.25c0 .669.811.999 1.28.53l2.781-2.78h3.189c.965 0 1.75-.785 1.75-1.75v-4.5c0-.965-.785-1.75-1.75-1.75zm-7.25 5c-.552 0-1-.448-1-1s.448-1 1-1 1 .448 1 1-.448 1-1 1zm3 0c-.552 0-1-.448-1-1s.448-1 1-1 1 .448 1 1-.448 1-1 1zm3 0c-.552 0-1-.448-1-1s.448-1 1-1 1 .448 1 1-.448 1-1 1z"/><path d="m13 13h-12c-.552 0-1 .448-1 1s.448 1 1 1h1.123l.877 8.33c.04.38.37.67.75.67h4.367c-.069-.24-.117-.488-.117-.75 0-1.412.7-2.657 1.763-3.43-.167-.408-.263-.853-.263-1.32 0-1.527.989-2.815 2.355-3.292l.022-.208h1.123c.552 0 1-.448 1-1s-.448-1-1-1z"/></svg>